<svg viewBox="0 0 32 32" xmlns="http://www.w3.org/2000/svg">
  <defs>
    <linearGradient id="tailGrad" x1="0%" y1="0%" x2="100%" y2="100%">
      <stop offset="0%" stop-color="#ff8c42"/>
      <stop offset="50%" stop-color="#ff6b35"/>
      <stop offset="100%" stop-color="#e85d04"/>
    </linearGradient>
    <linearGradient id="tipGrad" x1="0%" y1="0%" x2="100%" y2="100%">
      <stop offset="0%" stop-color="#ffffff"/>
      <stop offset="100%" stop-color="#f8f8f8"/>
    </linearGradient>
  </defs>
  
  <!-- Main fluffy tail body -->
  <path d="M8 26 C4 22 2 16 4 10 C6 6 10 4 14 5 C18 6 20 4 24 3 C28 2 30 6 29 10 C28 14 26 18 22 22 C18 26 12 28 8 26 Z" fill="url(#tailGrad)"/>
  
  <!-- White tip of tail -->
  <path d="M24 3 C28 2 30 5 29 8 C28 10 26 11 24 10 C22 9 22 6 24 3 Z" fill="url(#tipGrad)"/>
  
  <!-- Fur texture lines -->
  <path d="M10 20 Q14 18 18 19" stroke="#d35400" stroke-width="1.2" fill="none" opacity="0.4" stroke-linecap="round"/>
  <path d="M8 16 Q12 14 16 15" stroke="#d35400" stroke-width="1.2" fill="none" opacity="0.3" stroke-linecap="round"/>
  <path d="M12 23 Q16 21 20 22" stroke="#d35400" stroke-width="1.2" fill="none" opacity="0.3" stroke-linecap="round"/>
  
  <!-- Highlight on tail -->
  <path d="M14 8 Q18 7 22 8" stroke="#ffb380" stroke-width="1.5" fill="none" opacity="0.5" stroke-linecap="round"/>
</svg>
