<svg viewBox="0 0 32 32" xmlns="http://www.w3.org/2000/svg">
  <!-- Fox tail favicon -->
  <path d="M6 16C6 16 3 12 3 8C3 4 6 2 9 4C12 5 15 6 18 5C21 4 24 5 27 8C27 12 24 16 24 16C24 16 21 20 15 22C9 24 6 16 6 16Z" fill="#ff6b35"/>
  <path d="M3 8C3 8 1.5 6.5 1.5 5C1.5 3.5 3 3 4.5 4C6 5 6 6.5 6 8C6 8 4.5 6.5 3 8Z" fill="white"/>
  <path d="M8 12C11 13.5 14 14.5 17 14" stroke="#d35400" stroke-width="1.5" opacity="0.6" fill="none"/>
  <path d="M9 14.5C12 15.5 15 16.5 18 16" stroke="#d35400" stroke-width="1.5" opacity="0.4" fill="none"/>
</svg>
